<?xml version="1.0" encoding="utf-8" ?>
<svg xmlns="http://www.w3.org/2000/svg" xmlns:xlink="http://www.w3.org/1999/xlink" width="30" height="28">
	<path fill="#789FD6" transform="translate(1.30658 11.8272)" d="M1.3042464 0L27.389175 0C28.109491 0 28.693422 0.58195633 28.693422 1.2998358C28.693422 2.0177152 28.109491 2.5996716 27.389175 2.5996716L1.3042464 2.5996716C0.58393103 2.5996716 0 2.0177152 0 1.2998358C0 0.58195633 0.58393103 0 1.3042464 0Z"/>
	<path fill="#789FD6" transform="translate(0 0.12706)" d="M3.1507823 13L13.968203 23.778238C14.478186 24.286497 14.478186 25.110548 13.968203 25.618807C13.45822 26.127064 12.631372 26.127064 12.121389 25.618807L0.38317141 13.920283C0.13786429 13.676423 0 13.345307 0 13C0 12.654693 0.13786429 12.323577 0.38317141 12.079717L12.121389 0.381194C12.631372 -0.12706468 13.45822 -0.12706468 13.968203 0.381194C14.478186 0.8894527 14.478186 1.7135029 13.968203 2.2217615L3.1507823 13Z"/>
</svg>
