<?xml version="1.0" encoding="utf-8" ?>
<svg xmlns="http://www.w3.org/2000/svg" xmlns:xlink="http://www.w3.org/1999/xlink" width="17" height="15">
	<path fill="white" transform="translate(0 0.00134277)" d="M15.857175 3.4463358C15.707821 3.2364743 15.462078 3.1111999 15.199593 3.1111138L4.2662859 3.1111138L3.3431103 0.95666987C3.0955577 0.37643498 2.5124516 -0.0013095074 1.8663499 0L0 0L0 1.5555586L1.8663499 1.5555586L5.6614485 10.410557C5.7857475 10.700255 6.0769734 10.888889 6.3998284 10.888889L12.799657 10.888889C13.133248 10.888889 13.43164 10.687446 13.549237 10.38489L15.949173 4.1626692C16.041241 3.9236774 16.006861 3.6559789 15.857175 3.4463358Z"/>
	<path fill="white" transform="translate(5.59985 11.668)" d="M2.3999357 1.1666664Q2.399936 1.2239811 2.3941576 1.2810197Q2.3883796 1.3380584 2.3768785 1.3942716Q2.3653779 1.450485 2.3482652 1.5053318Q2.3311529 1.5601783 2.3085933 1.6131301Q2.2860341 1.666082 2.258245 1.716629Q2.2304559 1.7671762 2.1977046 1.8148314Q2.1649532 1.8624868 2.1275554 1.9067918Q2.0901575 1.9510965 2.0484731 1.991624Q2.006789 2.0321515 1.9612195 2.0685115Q1.9156499 2.1048715 1.8666341 2.1367137Q1.8176186 2.1685562 1.7656288 2.1955743Q1.713639 2.2225921 1.6591756 2.2445254Q1.6047125 2.266459 1.5483001 2.2830966Q1.4918879 2.2997341 1.4340699 2.3109155Q1.3762521 2.3220971 1.3175853 2.3277149Q1.2589185 2.3333328 1.1999679 2.3333328Q1.1410172 2.3333328 1.0823505 2.3277149Q1.0236837 2.3220971 0.96586567 2.3109155Q0.9080478 2.2997341 0.85163558 2.2830966Q0.79522336 2.266459 0.74075997 2.2445254Q0.6862967 2.2225921 0.63430691 2.1955743Q0.58231705 2.1685562 0.53330135 2.136714Q0.48428571 2.1048717 0.43871629 2.0685115Q0.39314684 2.0321515 0.35146242 1.991624Q0.30977803 1.9510965 0.27238014 1.9067917Q0.23498225 1.8624868 0.20223102 1.8148314Q0.16947982 1.7671762 0.14169067 1.716629Q0.11390153 1.666082 0.091342099 1.6131301Q0.068782672 1.5601783 0.051670205 1.5053318Q0.034557741 1.450485 0.023057042 1.3942716Q0.011556345 1.3380584 0.0057781725 1.2810197Q0 1.2239811 0 1.1666664Q0 1.1093518 0.0057781725 1.0523131Q0.011556345 0.99527436 0.023057042 0.93906093Q0.034557741 0.88284767 0.051670209 0.8280009Q0.068782672 0.77315426 0.091342099 0.72020239Q0.11390153 0.66725057 0.14169067 0.61670363Q0.16947982 0.56615663 0.20223102 0.51850122Q0.23498225 0.47084588 0.27238014 0.42654109Q0.30977803 0.38223627 0.35146242 0.34170866Q0.39314684 0.30118108 0.43871629 0.26482105Q0.48428577 0.22846103 0.53330141 0.19661871Q0.58231711 0.16477641 0.63430691 0.13775848Q0.6862967 0.11074055 0.74075997 0.088807181Q0.79522336 0.066873826 0.85163558 0.050236259Q0.9080478 0.033598699 0.96586567 0.022417165Q1.0236837 0.011235635 1.0823505 0.0056178174Q1.1410172 0 1.1999679 0Q1.2589185 0 1.3175853 0.0056178174Q1.3762522 0.011235635 1.43407 0.022417165Q1.491888 0.033598699 1.5483003 0.050236262Q1.6047125 0.066873826 1.6591756 0.088807181Q1.713639 0.11074055 1.7656288 0.13775848Q1.8176186 0.16477641 1.8666341 0.19661872Q1.9156499 0.22846103 1.9612194 0.26482105Q2.006789 0.30118108 2.0484731 0.34170866Q2.0901575 0.38223627 2.1275554 0.42654109Q2.1649532 0.47084594 2.1977046 0.51850128Q2.2304559 0.56615669 2.258245 0.61670363Q2.2860341 0.66725063 2.3085933 0.72020245Q2.3311529 0.77315426 2.3482652 0.82800102Q2.3653779 0.88284767 2.3768785 0.93906105Q2.3883796 0.99527442 2.3941576 1.0523131Q2.399936 1.1093518 2.3999357 1.1666664Z"/>
	<path fill="white" transform="translate(11.1997 11.668)" d="M2.3999357 1.1666664Q2.399936 1.2239811 2.3941576 1.2810197Q2.3883796 1.3380584 2.3768785 1.3942716Q2.3653779 1.450485 2.3482652 1.5053318Q2.3311529 1.5601783 2.3085933 1.6131301Q2.2860341 1.666082 2.258245 1.716629Q2.2304559 1.7671762 2.1977046 1.8148314Q2.1649532 1.8624868 2.1275554 1.9067918Q2.0901575 1.9510965 2.0484731 1.991624Q2.006789 2.0321515 1.9612195 2.0685115Q1.9156499 2.1048715 1.8666341 2.1367137Q1.8176186 2.1685562 1.7656288 2.1955743Q1.713639 2.2225921 1.6591756 2.2445254Q1.6047125 2.266459 1.5483001 2.2830966Q1.4918879 2.2997341 1.4340699 2.3109155Q1.3762521 2.3220971 1.3175853 2.3277149Q1.2589185 2.3333328 1.1999679 2.3333328Q1.1410172 2.3333328 1.0823505 2.3277149Q1.0236837 2.3220971 0.96586567 2.3109155Q0.9080478 2.2997341 0.85163558 2.2830966Q0.79522336 2.266459 0.74075997 2.2445254Q0.6862967 2.2225921 0.63430691 2.1955743Q0.58231705 2.1685562 0.53330135 2.136714Q0.48428571 2.1048717 0.43871629 2.0685115Q0.39314684 2.0321515 0.35146242 1.991624Q0.30977803 1.9510965 0.27238014 1.9067917Q0.23498225 1.8624868 0.20223102 1.8148314Q0.16947982 1.7671762 0.14169067 1.716629Q0.11390153 1.666082 0.091342099 1.6131301Q0.068782672 1.5601783 0.051670205 1.5053318Q0.034557741 1.450485 0.023057042 1.3942716Q0.011556345 1.3380584 0.0057781725 1.2810197Q0 1.2239811 0 1.1666664Q0 1.1093518 0.0057781725 1.0523131Q0.011556345 0.99527436 0.023057042 0.93906093Q0.034557741 0.88284767 0.051670209 0.8280009Q0.068782672 0.77315426 0.091342099 0.72020239Q0.11390153 0.66725057 0.14169067 0.61670363Q0.16947982 0.56615663 0.20223102 0.51850122Q0.23498225 0.47084588 0.27238014 0.42654109Q0.30977803 0.38223627 0.35146242 0.34170866Q0.39314684 0.30118108 0.43871629 0.26482105Q0.48428577 0.22846103 0.53330141 0.19661871Q0.58231711 0.16477641 0.63430691 0.13775848Q0.6862967 0.11074055 0.74075997 0.088807181Q0.79522336 0.066873826 0.85163558 0.050236259Q0.9080478 0.033598699 0.96586567 0.022417165Q1.0236837 0.011235635 1.0823505 0.0056178174Q1.1410172 0 1.1999679 0Q1.2589185 0 1.3175853 0.0056178174Q1.3762522 0.011235635 1.43407 0.022417165Q1.491888 0.033598699 1.5483003 0.050236262Q1.6047125 0.066873826 1.6591756 0.088807181Q1.713639 0.11074055 1.7656288 0.13775848Q1.8176186 0.16477641 1.8666341 0.19661872Q1.9156499 0.22846103 1.9612194 0.26482105Q2.006789 0.30118108 2.0484731 0.34170866Q2.0901575 0.38223627 2.1275554 0.42654109Q2.1649532 0.47084594 2.1977046 0.51850128Q2.2304559 0.56615669 2.258245 0.61670363Q2.2860341 0.66725063 2.3085933 0.72020245Q2.3311529 0.77315426 2.3482652 0.82800102Q2.3653779 0.88284767 2.3768785 0.93906105Q2.3883796 0.99527442 2.3941576 1.0523131Q2.399936 1.1093518 2.3999357 1.1666664Z"/>
</svg>
