<?xml version="1.0" encoding="utf-8" ?>
<svg xmlns="http://www.w3.org/2000/svg" xmlns:xlink="http://www.w3.org/1999/xlink" width="19" height="17">
	<path fill="#001C38" transform="translate(0 0.00149536)" d="M17.839321 3.9386697C17.671299 3.698828 17.394838 3.5556571 17.099543 3.5555587L4.7995715 3.5555587L3.7609992 1.0933369C3.4825025 0.4302114 2.826508 -0.0014965798 2.0996437 0L0 0L0 1.7777812L2.0996437 1.7777812L6.3691292 11.897779C6.508966 12.228864 6.8365951 12.444446 7.1998072 12.444446L14.399614 12.444446C14.774904 12.444446 15.110595 12.214223 15.242891 11.868445L17.94282 4.7573361C18.046394 4.4842029 18.007717 4.1782618 17.839321 3.9386697Z"/>
	<path fill="#001C38" transform="translate(6.29983 13.3348)" d="M2.6999276 1.333333Q2.6999276 1.3988357 2.6934271 1.4640226Q2.6869266 1.5292096 2.6739881 1.5934534Q2.6610498 1.6576972 2.6417985 1.7203791Q2.6225469 1.783061 2.5971675 1.8435773Q2.5717883 1.9040937 2.5405254 1.9618617Q2.5092626 2.0196297 2.4724174 2.0740929Q2.4355726 2.1285563 2.3934999 2.1791904Q2.3514276 2.2298245 2.3045323 2.2761416Q2.2576375 2.3224587 2.2063718 2.3640132Q2.1551061 2.4055676 2.0999634 2.4419587Q2.0448208 2.4783502 1.9863323 2.5092278Q1.9278437 2.5401053 1.8665724 2.565172Q1.8053012 2.5902386 1.7418375 2.6092529Q1.6783736 2.6282673 1.6133285 2.6410463Q1.5482833 2.6538253 1.4822834 2.6602459Q1.4162832 2.666666 1.3499638 2.666666Q1.2836443 2.666666 1.2176442 2.6602459Q1.151644 2.6538253 1.0865988 2.6410463Q1.0215536 2.6282673 0.95808995 2.6092529Q0.89462614 2.5902386 0.83335489 2.565172Q0.77208376 2.5401053 0.71359521 2.5092278Q0.65510666 2.4783502 0.59996396 2.4419587Q0.54482138 2.4055676 0.49355581 2.3640132Q0.44229019 2.3224587 0.39539522 2.2761416Q0.34850031 2.2298245 0.30642766 2.1791904Q0.26435503 2.1285563 0.22750989 2.0740929Q0.19066477 2.0196297 0.159402 1.9618617Q0.12813923 1.9040937 0.10275986 1.8435773Q0.077380508 1.783061 0.058128983 1.7203791Q0.038877457 1.6576972 0.025939172 1.5934533Q0.013000889 1.5292096 0.0065004444 1.4640226Q0 1.3988357 0 1.333333Q0 1.2678306 0.0065004444 1.2026435Q0.013000889 1.1374564 0.025939172 1.0732126Q0.038877457 1.0089688 0.058128983 0.94628686Q0.077380508 0.88360488 0.10275986 0.82308847Q0.12813923 0.76257217 0.15940201 0.70480412Q0.19066478 0.64703614 0.2275099 0.59257281Q0.26435503 0.53810954 0.30642766 0.48747548Q0.34850031 0.43684143 0.39539522 0.39052418Q0.44229019 0.34420696 0.49355581 0.30265263Q0.54482144 0.26109833 0.59996402 0.22470711Q0.65510666 0.1883159 0.71359527 0.15743826Q0.77208376 0.12656063 0.83335495 0.10149392Q0.8946262 0.076427221 0.95808995 0.057412867Q1.0215538 0.038398508 1.0865989 0.025619615Q1.151644 0.012840724 1.2176442 0.0064203618Q1.2836443 0 1.3499638 0Q1.4162832 0 1.4822834 0.0064203618Q1.5482833 0.012840724 1.6133285 0.025619615Q1.6783736 0.038398508 1.7418375 0.057412863Q1.8053012 0.076427221 1.8665724 0.10149392Q1.9278436 0.12656063 1.9863322 0.15743826Q2.0448208 0.1883159 2.0999632 0.2247071Q2.1551058 0.26109833 2.2063715 0.30265263Q2.257637 0.34420696 2.3045321 0.39052418Q2.3514271 0.43684143 2.3934999 0.48747548Q2.4355721 0.53810954 2.4724174 0.59257281Q2.5092626 0.64703614 2.5405252 0.70480418Q2.5717878 0.76257217 2.5971673 0.82308853Q2.6225467 0.883605 2.6417985 0.94628692Q2.6610498 1.0089688 2.6739881 1.0732126Q2.6869266 1.1374564 2.6934271 1.2026435Q2.6999276 1.2678306 2.6999276 1.333333Z"/>
	<path fill="#001C38" transform="translate(12.5997 13.3348)" d="M2.6999276 1.333333Q2.6999276 1.3988357 2.6934271 1.4640226Q2.6869266 1.5292096 2.6739881 1.5934534Q2.6610498 1.6576972 2.6417985 1.7203791Q2.6225469 1.783061 2.5971675 1.8435773Q2.5717883 1.9040937 2.5405254 1.9618617Q2.5092626 2.0196297 2.4724174 2.0740929Q2.4355726 2.1285563 2.3934999 2.1791904Q2.3514276 2.2298245 2.3045323 2.2761416Q2.2576375 2.3224587 2.2063718 2.3640132Q2.1551061 2.4055676 2.0999634 2.4419587Q2.0448208 2.4783502 1.9863323 2.5092278Q1.9278437 2.5401053 1.8665724 2.565172Q1.8053012 2.5902386 1.7418375 2.6092529Q1.6783736 2.6282673 1.6133285 2.6410463Q1.5482833 2.6538253 1.4822834 2.6602459Q1.4162832 2.666666 1.3499638 2.666666Q1.2836443 2.666666 1.2176442 2.6602459Q1.151644 2.6538253 1.0865988 2.6410463Q1.0215536 2.6282673 0.95808995 2.6092529Q0.89462614 2.5902386 0.83335489 2.565172Q0.77208376 2.5401053 0.71359521 2.5092278Q0.65510666 2.4783502 0.59996396 2.4419587Q0.54482138 2.4055676 0.49355581 2.3640132Q0.44229019 2.3224587 0.39539522 2.2761416Q0.34850031 2.2298245 0.30642766 2.1791904Q0.26435503 2.1285563 0.22750989 2.0740929Q0.19066477 2.0196297 0.159402 1.9618617Q0.12813923 1.9040937 0.10275986 1.8435773Q0.077380508 1.783061 0.058128983 1.7203791Q0.038877457 1.6576972 0.025939172 1.5934533Q0.013000889 1.5292096 0.0065004444 1.4640226Q0 1.3988357 0 1.333333Q0 1.2678306 0.0065004444 1.2026435Q0.013000889 1.1374564 0.025939172 1.0732126Q0.038877457 1.0089688 0.058128983 0.94628686Q0.077380508 0.88360488 0.10275986 0.82308847Q0.12813923 0.76257217 0.15940201 0.70480412Q0.19066478 0.64703614 0.2275099 0.59257281Q0.26435503 0.53810954 0.30642766 0.48747548Q0.34850031 0.43684143 0.39539522 0.39052418Q0.44229019 0.34420696 0.49355581 0.30265263Q0.54482144 0.26109833 0.59996402 0.22470711Q0.65510666 0.1883159 0.71359527 0.15743826Q0.77208376 0.12656063 0.83335495 0.10149392Q0.8946262 0.076427221 0.95808995 0.057412867Q1.0215538 0.038398508 1.0865989 0.025619615Q1.151644 0.012840724 1.2176442 0.0064203618Q1.2836443 0 1.3499638 0Q1.4162832 0 1.4822834 0.0064203618Q1.5482833 0.012840724 1.6133285 0.025619615Q1.6783736 0.038398508 1.7418375 0.057412863Q1.8053012 0.076427221 1.8665724 0.10149392Q1.9278436 0.12656063 1.9863322 0.15743826Q2.0448208 0.1883159 2.0999632 0.2247071Q2.1551058 0.26109833 2.2063715 0.30265263Q2.257637 0.34420696 2.3045321 0.39052418Q2.3514271 0.43684143 2.3934999 0.48747548Q2.4355721 0.53810954 2.4724174 0.59257281Q2.5092626 0.64703614 2.5405252 0.70480418Q2.5717878 0.76257217 2.5971673 0.82308853Q2.6225467 0.883605 2.6417985 0.94628692Q2.6610498 1.0089688 2.6739881 1.0732126Q2.6869266 1.1374564 2.6934271 1.2026435Q2.6999276 1.2678306 2.6999276 1.333333Z"/>
</svg>
