<?xml version="1.0" encoding="utf-8" ?>
<svg xmlns="http://www.w3.org/2000/svg" xmlns:xlink="http://www.w3.org/1999/xlink" width="16" height="14">
	<path fill="white" d="M6.7645569 0L6.7645569 4.4660001C7.7547116 4.6059999 8.6706047 4.816 9.5122366 5.0960002C10.353868 5.3759999 11.06948 5.6933331 11.659072 6.0479999C12.248664 6.4026666 12.781997 6.7876668 13.259071 7.2030001C13.736146 7.6183333 14.123207 8.0406666 14.420253 8.4700003C14.717299 8.899333 14.97384 9.3216667 15.189874 9.7370005C15.405908 10.152333 15.563432 10.542 15.662447 10.906C15.761463 11.27 15.840225 11.592 15.898734 11.872C15.957243 12.152 15.986498 12.371333 15.986498 12.53L16 12.768C15.945992 12.665334 15.860478 12.527667 15.74346 12.355C15.626442 12.182333 15.322644 11.888333 14.832067 11.473C14.341491 11.057667 13.781154 10.700666 13.151054 10.402C12.520956 10.103333 11.638819 9.8606663 10.504642 9.6739998C9.811533 9.5620003 9.0824194 9.5059996 8.3172998 9.5059996C7.8222222 9.5059996 7.3046412 9.5293331 6.7645569 9.5760002L6.7645569 14L0 7.0139999L6.7645569 0Z"/>
</svg>
