<?xml version="1.0" encoding="utf-8" ?>
<svg xmlns="http://www.w3.org/2000/svg" xmlns:xlink="http://www.w3.org/1999/xlink" width="13" height="18">
	<path fill="white" transform="translate(0 2.90323)" d="M11.375 0L11.282917 0L11.282917 1.1612903L11.375 1.1612903C11.674154 1.1612903 11.916667 1.421254 11.916667 1.7419355L11.916667 13.354838C11.916667 13.67552 11.674154 13.935484 11.375 13.935484L1.625 13.935484C1.3258457 13.935484 1.0833334 13.67552 1.0833334 13.354838L1.0833334 1.7419355C1.0833334 1.421254 1.3258457 1.1612903 1.625 1.1612903L1.7170833 1.1612903L1.7170833 0L1.625 0C0.72753727 0 0 0.77989107 0 1.7419355L0 13.354838C0 14.316883 0.72753727 15.096774 1.625 15.096774L11.375 15.096774C12.272463 15.096774 13 14.316883 13 13.354838L13 1.7419355C13 0.77989107 12.272463 0 11.375 0"/>
	<path fill="white" transform="translate(2.70833 0)" d="M7.5833335 1.7419355L5.9583335 1.7419355L5.9583335 0L1.625 0L1.625 1.7419355L0 1.7419355L0 5.2258062L7.5833335 5.2258062L7.5833335 1.7419355ZM6.5 4.0645161L1.0833334 4.0645161L1.0833334 2.9032259L2.7083333 2.9032259L2.7083333 1.1612903L4.875 1.1612903L4.875 2.9032259L6.5 2.9032259L6.5 4.0645161Z"/>
	<path fill="white" transform="translate(3.25 7.54839)" d="M0 0L6.5 0L6.5 1.1612903L0 1.1612903L0 0ZM0 2.9032259L6.5 2.9032259L6.5 4.0645161L0 4.0645161L0 2.9032259ZM0 5.8064518L6.5 5.8064518L6.5 6.967742L0 6.967742L0 5.8064518Z"/>
</svg>
