<?xml version="1.0" encoding="utf-8" ?>
<svg xmlns="http://www.w3.org/2000/svg" xmlns:xlink="http://www.w3.org/1999/xlink" width="16" height="16">
	<path fill="white" d="M16 15.157895L16 14.736842C16 14.113685 15.818948 13.894737 15.157895 13.894737L0.84210527 13.894737C0.21894737 13.894737 0 14.101052 0 14.736842L0 15.157895C0 15.810526 0.21894737 16 0.84210527 16L15.157895 16C15.793684 16 16 15.797894 16 15.157895ZM9.6842108 0L6.3157897 0C5.2631578 0 5.0526314 0.19789474 5.0526314 1.2631578L5.0526314 5.8947368L0.84210527 5.8947368L8 13.052631L15.157895 5.8947368L10.947369 5.8947368L10.947369 1.2631578C10.947369 0.19789474 10.724631 0 9.6842108 0Z"/>
</svg>
