<?xml version="1.0" encoding="utf-8" ?>
<svg xmlns="http://www.w3.org/2000/svg" xmlns:xlink="http://www.w3.org/1999/xlink" width="24" height="24">
	<path fill="white" d="M21.333334 0C22.799999 0 24 1.2 24 2.6666667L24 21.333334C24 22.799999 22.799999 24 21.333334 24L2.6666667 24C1.2 24 0 22.799999 0 21.333334L0 2.6666667C0 1.2 1.2 0 2.6666667 0L21.333334 0ZM21.333334 2.6666667L2.6666667 2.6666667L2.6666667 21.333334L21.333334 21.333334L21.333334 2.6666667ZM16.795986 6L18 7.2080536L13.183947 12L18 16.791946L16.795986 18L11.979933 13.208054L7.2040133 18L6 16.791946L10.77592 12L6 7.2080536L7.2040133 6L11.979933 10.791946L16.795986 6Z" fill-rule="evenodd"/>
</svg>
