<?xml version="1.0" encoding="utf-8" ?>
<svg xmlns="http://www.w3.org/2000/svg" xmlns:xlink="http://www.w3.org/1999/xlink" width="14" height="18">
	<path fill="#001C38" transform="translate(0.000488281 0.000488281)" d="M1.0588249 16C0.76470727 16 0.51458973 15.893817 0.30847213 15.681453C0.10235452 15.46909 -0.00046898017 15.211635 0 14.909089L0 12.727272C0 12.424241 0.1030604 12.166545 0.30917799 11.954181C0.51529557 11.741817 0.76517785 11.635878 1.0588249 11.636363L1.764707 11.636363L1.764707 10.181818L1.0588249 10.181818C0.76470727 10.181818 0.51458973 10.075636 0.30847213 9.8632727C0.10235452 9.6509085 -0.00046898017 9.3934546 0 9.090909L0 6.909091C0 6.606061 0.1030604 6.3483639 0.30917799 6.1360002C0.51529557 5.9236369 0.76517785 5.8176975 1.0588249 5.8181825L1.764707 5.8181825L1.764707 4.363637L1.0588249 4.363637C0.76470727 4.363637 0.51458973 4.2574553 0.30847213 4.0450916C0.10235452 3.8327281 -0.00046898017 3.5752738 0 3.2727282L0 1.0909106C0 0.7878803 0.1030604 0.53018337 0.30917799 0.31781977C0.51529557 0.10545618 0.76517785 -0.00048319172 1.0588249 0L3.8823535 0C4.1764712 0 4.4265885 0.10618345 4.6327062 0.31854704C4.8388238 0.53091061 4.9416475 0.78836513 4.9411769 1.0909106L4.9411769 3.2727282C4.9411769 3.5757585 4.8381181 3.8334553 4.6320004 4.0458188C4.4258828 4.2581825 4.1760006 4.3641219 3.8823535 4.363637L3.1764712 4.363637L3.1764712 5.8181825L3.8823535 5.8181825C4.1764712 5.8181825 4.4265885 5.9243641 4.6327062 6.1367278C4.8388238 6.3490911 4.9416475 6.6065459 4.9411769 6.909091L4.9411769 7.2727275L7.0588231 7.2727275L7.0588231 6.909091C7.0588231 6.606061 7.1618819 6.3483639 7.3679996 6.1360002C7.5741172 5.9236369 7.8239994 5.8176975 8.1176462 5.8181825L10.941175 5.8181825C11.235292 5.8181825 11.485411 5.9243641 11.691528 6.1367278C11.897646 6.3490911 12.000469 6.6065459 12 6.909091L12 9.090909C12 9.393939 11.896939 9.6516361 11.690822 9.8639994C11.484704 10.076364 11.234822 10.182302 10.941175 10.181818L8.1176462 10.181818C7.8235288 10.181818 7.5734115 10.075636 7.3672938 9.8632727C7.1611762 9.6509085 7.0583525 9.3934546 7.0588231 9.090909L7.0588231 8.727273L4.9411769 8.727273L4.9411769 9.090909C4.9411769 9.393939 4.8381181 9.6516361 4.6320004 9.8639994C4.4258828 10.076364 4.1760006 10.182302 3.8823535 10.181818L3.1764712 10.181818L3.1764712 11.636363L3.8823535 11.636363C4.1764712 11.636363 4.4265885 11.742545 4.6327062 11.954908C4.8388238 12.167272 4.9416475 12.424726 4.9411769 12.727272L4.9411769 14.909089C4.9411769 15.21212 4.8381181 15.469816 4.6320004 15.68218C4.4258828 15.894544 4.1760006 16.000483 3.8823535 16L1.0588249 16Z"/>
</svg>
