<?xml version="1.0" encoding="utf-8" ?>
<svg xmlns="http://www.w3.org/2000/svg" xmlns:xlink="http://www.w3.org/1999/xlink" width="20" height="16">
	<path fill="white" d="M5.4545455 0L5.4545455 2L8.181818 2L8.181818 4L5.4545455 4L3.6363637 6L3.6363637 9L1.8181819 9L1.8181819 6L0 6L0 14L1.8181819 14L1.8181819 11L3.6363637 11L3.6363637 14L6.3636365 14L8.181818 16L15.454545 16L15.454545 12L17.272728 12L17.272728 15L20 15L20 5L17.272728 5L17.272728 8L15.454545 8L15.454545 4L10 4L10 2L12.727273 2L12.727273 0L5.4545455 0Z"/>
</svg>
