<?xml version="1.0" encoding="utf-8" ?>
<svg xmlns="http://www.w3.org/2000/svg" xmlns:xlink="http://www.w3.org/1999/xlink" width="20" height="16">
	<path fill="white" d="M2.9288702 16L17.043236 16C17.294281 16 17.545328 15.892977 17.684797 15.705686C18.437937 14.90301 18.995815 13.886288 19.386332 12.84281C19.776848 11.772575 20 10.648829 20 9.5785952C20 6.9565215 18.884239 4.5752506 17.071129 2.8093646C15.230125 1.0434783 12.74756 0 9.9860535 0C7.2245469 0 4.7419806 1.0434783 2.9009762 2.8093646C1.0878661 4.5752506 0 6.9297657 0 9.5785952C0 10.648829 0.22315203 11.772575 0.61366808 12.84281C1.0041841 13.886288 1.5341702 14.90301 2.3152022 15.705686C2.4546723 15.892977 2.6499302 16 2.9288702 16ZM8.7308226 2.8093646C8.7308226 2.1137123 9.288703 1.6053512 9.9860535 1.6053512C10.683403 1.6053512 11.241283 2.1137123 11.241283 2.8093646C11.241283 3.4782608 10.683403 3.9866221 9.9860535 3.9866221C9.288703 3.9866221 8.7308226 3.4782608 8.7308226 2.8093646ZM3.7377963 4.7892976C3.7377963 4.1204014 4.2956762 3.61204 4.9930267 3.61204C5.6903768 3.61204 6.2482567 4.1204014 6.2482567 4.7892976C6.2482567 5.4581938 5.6903768 5.9933109 4.9930267 5.9933109C4.2956762 5.9933109 3.7377963 5.4581938 3.7377963 4.7892976ZM13.751743 4.7892976C13.751743 4.1204014 14.309624 3.61204 15.006973 3.61204C15.732218 3.61204 16.262203 4.1204014 16.262203 4.7892976C16.262203 5.4581938 15.732218 5.9665551 15.006973 5.9665551C14.309624 5.9665551 13.751743 5.4581938 13.751743 4.7892976ZM9.9023714 10.809364L11.352859 5.8327761C11.436542 5.5919733 11.659693 5.4046822 11.966527 5.4046822C12.273361 5.4046822 12.580195 5.6722407 12.580195 5.9665551C12.580195 6.0200667 12.524407 6.1538463 12.468619 6.394649C12.384937 6.6622071 12.329149 6.9832778 12.217573 7.304348C12.133891 7.652174 12.022315 8.0535116 11.910739 8.4280939C11.659693 9.2575254 11.408648 10.033444 11.269177 10.568562C11.185495 10.836121 11.129707 11.076923 11.101813 11.15719C11.659693 11.531773 12.078103 12.120401 12.078103 12.789298C12.078103 13.913043 11.157601 14.795986 9.9860535 14.795986C8.8145046 14.795986 7.9218969 13.913043 7.9218969 12.789298C7.9218969 12.280936 8.1171551 11.772575 8.4797764 11.424749C8.8423986 11.076923 9.372385 10.836121 9.9023714 10.809364ZM1.6736401 9.5785952C1.6736401 8.9096994 2.2036262 8.4013376 2.9009762 8.4013376C3.5983264 8.4013376 4.1841006 8.9096994 4.1841006 9.5785952C4.1841006 10.247492 3.5983264 10.782609 2.9009762 10.782609C2.2036262 10.782609 1.6736401 10.247492 1.6736401 9.5785952ZM15.8159 9.5785952C15.8159 8.9096994 16.373779 8.4013376 17.071129 8.4013376C17.76848 8.4013376 18.298466 8.9096994 18.298466 9.5785952C18.298466 10.247492 17.76848 10.782609 17.071129 10.782609C16.373779 10.782609 15.8159 10.247492 15.8159 9.5785952Z"/>
</svg>
