<?xml version="1.0" encoding="utf-8" ?>
<svg xmlns="http://www.w3.org/2000/svg" xmlns:xlink="http://www.w3.org/1999/xlink" width="13" height="17">
	<path fill="white" d="M1.1099521 15.917564C0.83941174 16.023603 0.58661723 15.99742 0.35156855 15.839017C0.11718951 15.679959 0 15.460028 0 15.179222L0 11.320597C0 11.056155 0.063282333 10.804805 0.18984701 10.566545C0.31708133 10.32894 0.49688354 10.139118 0.72925359 9.9970789L1.9306135 9.2282991C2.0478029 10.364614 2.1988101 11.352998 2.3836346 12.193451C2.5684593 13.032596 2.8728173 13.990215 3.2967083 15.066311L1.1099521 15.917564ZM4.6859064 14.607792C4.4896975 14.607792 4.3273063 14.543645 4.1987329 14.415352C4.070159 14.286404 3.9703808 14.134546 3.8993974 13.959779C3.5377839 12.95634 3.2642303 12.029485 3.0787358 11.179213C2.8932416 10.32894 2.8004944 9.3700113 2.8004944 8.3024254C2.8004944 6.709229 3.051615 5.2397442 3.5538557 3.8939712C4.0560966 2.5468888 4.8462887 1.3264637 5.9244323 0.2326957C5.9980941 0.14760303 6.0871582 0.087710902 6.1916242 0.053019274C6.2960901 0.01832765 6.4018955 0.00065455894 6.5090404 0C6.6175241 0 6.7233295 0.017345812 6.8264565 0.052037437C6.9295831 0.086729057 7.0189819 0.1466212 7.0946531 0.23171386C8.1727962 1.3254819 8.9629889 2.5455797 9.465229 3.8920076C9.9674702 5.2384353 10.218591 6.7085748 10.218591 8.3024254C10.218591 9.3857212 10.128857 10.345304 9.9493895 11.181176C9.7705917 12.017048 9.4936895 12.943249 9.1186838 13.959779C9.0476999 14.133891 8.9479218 14.285421 8.8193483 14.41437C8.690774 14.542664 8.5283833 14.606811 8.3321743 14.606811L4.6859064 14.606811L4.6859064 14.607792ZM6.5090404 8.4143553C6.9329314 8.4143553 7.2898574 8.272316 7.5798178 7.9882374C7.8704476 7.7048135 8.0157623 7.3559337 8.0157623 6.9415975C8.0157623 6.5272617 7.8704476 6.1783819 7.5798178 5.894958C7.2898574 5.6108794 6.9329314 5.4688401 6.5090404 5.4688401C6.0851493 5.4688401 5.7282233 5.6108794 5.4382629 5.894958C5.1476331 6.1783819 5.0023179 6.5272617 5.0023179 6.9415975C5.0023179 7.3559337 5.1476331 7.7048135 5.4382629 7.9882374C5.7282233 8.272316 6.0851493 8.4143553 6.5090404 8.4143553ZM11.889044 15.937201L9.7022867 15.084966C10.126179 14.00887 10.430536 13.047978 10.615361 12.202288C10.799516 11.355943 10.950188 10.364286 11.067377 9.2273178L12.269742 10.015734C12.502782 10.157773 12.682584 10.347595 12.809149 10.5852C12.936383 10.82346 13 11.07481 13 11.339252L13 15.197877C13 15.479338 12.882476 15.699269 12.647427 15.857673C12.412378 16.016075 12.159584 16.042257 11.889044 15.936219L11.889044 15.937201Z"/>
</svg>
