<?xml version="1.0" encoding="utf-8" ?>
<svg xmlns="http://www.w3.org/2000/svg" xmlns:xlink="http://www.w3.org/1999/xlink" width="18" height="15">
	<path fill="white" d="M0 2.9953916L0 12.004608C0 12.834102 0.35570833 13.571428 0.9248417 14.147466C1.493975 14.70046 2.2291055 15 3.0828056 15L7.7307277 15L7.7307277 13.13364L3.0828056 13.13364C2.4425306 13.13364 1.944539 12.626728 1.944539 12.004608L1.944539 2.9953916C1.944539 2.3732719 2.4425306 1.889401 3.0828056 1.889401L7.7307277 1.889401L7.7307277 0L3.0828056 0C2.2291055 0 1.493975 0.32258064 0.9248417 0.87557602C0.35570833 1.4516129 0 2.1658986 0 2.9953916ZM5.0984859 5.7142859L5.0984859 9.3087559C5.0984859 9.7235022 5.4779086 10.069124 5.9047585 10.069124L10.196972 10.069124L10.196972 12.903226C10.196972 13.156682 10.339255 13.364056 10.576394 13.479262C10.67125 13.502304 10.766106 13.502304 10.813534 13.502304C10.97953 13.502304 11.121814 13.456222 11.240383 13.341014L16.813147 7.9262671C17.073999 7.718894 17.050285 7.3041472 16.813147 7.0737329L11.240383 1.6820277C10.908389 1.3364055 10.196972 1.5437788 10.196972 2.0967741L10.196972 4.953917L5.9047585 4.953917C5.4779086 4.953917 5.0984859 5.2995391 5.0984859 5.7142859Z"/>
</svg>
