<?xml version="1.0" encoding="utf-8" ?>
<svg xmlns="http://www.w3.org/2000/svg" xmlns:xlink="http://www.w3.org/1999/xlink" width="30" height="22">
	<path fill="#789FD6" d="M0 1.8333334C0 0.82081127 0.83946609 0 1.875 0L28.125 0C29.160534 0 30 0.82081127 30 1.8333334C30 2.8458555 29.160534 3.6666667 28.125 3.6666667L1.875 3.6666667C0.83946609 3.6666667 0 2.8458555 0 1.8333334ZM0 11C0 9.9874783 0.83946609 9.166667 1.875 9.166667L28.125 9.166667C29.160534 9.166667 30 9.9874783 30 11C30 12.012522 29.160534 12.833333 28.125 12.833333L1.875 12.833333C0.83946609 12.833333 0 12.012522 0 11ZM0 20.166666C0 19.154144 0.83946609 18.333334 1.875 18.333334L28.125 18.333334C29.160534 18.333334 30 19.154144 30 20.166666C30 21.179188 29.160534 22 28.125 22L1.875 22C0.83946609 22 0 21.179188 0 20.166666Z"/>
</svg>
