<?xml version="1.0" encoding="utf-8" ?>
<svg xmlns="http://www.w3.org/2000/svg" xmlns:xlink="http://www.w3.org/1999/xlink" width="40" height="40">
	<path fill="#789FD6" d="M0 1.25C0 0.55964404 0.55964404 0 1.25 0L8.75 0C9.4403563 0 10 0.55964404 10 1.25C10 1.9403559 9.4403563 2.5 8.75 2.5L2.5 2.5L2.5 8.75C2.5 9.4403563 1.9403559 10 1.25 10C0.55964404 10 0 9.4403563 0 8.75L0 1.25ZM30 1.25C30 0.55964404 30.559645 0 31.25 0L38.75 0C39.440357 0 40 0.55964404 40 1.25L40 8.75C40 9.4403563 39.440357 10 38.75 10C38.059643 10 37.5 9.4403563 37.5 8.75L37.5 2.5L31.25 2.5C30.559645 2.5 30 1.9403559 30 1.25ZM1.25 30C1.9403559 30 2.5 30.559645 2.5 31.25L2.5 37.5L8.75 37.5C9.4403563 37.5 10 38.059643 10 38.75C10 39.440357 9.4403563 40 8.75 40L1.25 40C0.55964404 40 0 39.440357 0 38.75L0 31.25C0 30.559645 0.55964404 30 1.25 30ZM38.75 30C39.440357 30 40 30.559645 40 31.25L40 38.75C40 39.440357 39.440357 40 38.75 40L31.25 40C30.559645 40 30 39.440357 30 38.75C30 38.059643 30.559645 37.5 31.25 37.5L37.5 37.5L37.5 31.25C37.5 30.559645 38.059643 30 38.75 30ZM10 10L12.5 10L12.5 12.5L10 12.5L10 10Z"/>
	<path fill="#789FD6" transform="translate(5 5)" d="M12.5 0L0 0L0 12.5L12.5 12.5L12.5 0ZM2.5 2.5L10 2.5L10 10L2.5 10L2.5 2.5ZM7.5 22.5L5 22.5L5 25L7.5 25L7.5 22.5Z"/>
	<path fill="#789FD6" transform="translate(5 10)" d="M12.5 12.5L0 12.5L0 25L12.5 25L12.5 12.5ZM2.5 15L10 15L10 22.5L2.5 22.5L2.5 15ZM22.5 0L25 0L25 2.5L22.5 2.5L22.5 0Z"/>
	<path fill="#789FD6" transform="translate(20 5)" d="M2.5 0L15 0L15 12.5L2.5 12.5L2.5 0ZM5 2.5L5 10L12.5 10L12.5 2.5L5 2.5ZM0 15L0 20L2.5 20L2.5 22.5L0 22.5L0 25L5 25L5 20L7.5 20L7.5 25L10 25L10 22.5L15 22.5L15 20L7.5 20L7.5 15L0 15ZM5 20L2.5 20L2.5 17.5L5 17.5L5 20ZM15 25L12.5 25L12.5 27.5L7.5 27.5L7.5 30L15 30L15 25ZM5 30L5 27.5L0 27.5L0 30L5 30Z"/>
	<path fill="#789FD6" transform="translate(30 20)" d="M0 0L5 0L5 2.5L0 2.5L0 0Z"/>
</svg>
