<?xml version="1.0" encoding="utf-8" ?>
<svg xmlns="http://www.w3.org/2000/svg" xmlns:xlink="http://www.w3.org/1999/xlink" width="22" height="12">
	<path fill="#001C38" transform="translate(0.0664062 0)" d="M14.30044 0L5.6248856 0C4.0869842 0 2.6161463 0.61570323 1.5546702 1.7038399C0.49319398 2.7919765 -0.066340938 4.2576351 0.0062821764 5.7597222C0.13830997 8.5624304 2.4874673 10.861736 5.3537989 10.993889C6.5912662 11.048889 7.8537335 10.543195 9.2115107 9.4431944C9.6701918 9.0719109 10.334038 9.0719109 10.792719 9.4431944C11.618479 10.113125 12.890321 11 14.374657 11C15.879409 11.000128 17.321476 10.410714 18.3785 9.3635149C19.435524 8.3163166 20.019363 6.898654 19.99951 5.4274306C19.959667 2.4345138 17.402702 0 14.30044 0M13.749673 3.6666667L6.2498689 3.6666667C5.9047003 3.6666667 5.6248856 3.3930628 5.6248856 3.0555556C5.6248856 2.7180481 5.9047003 2.4444444 6.2498689 2.4444444L13.749673 2.4444444C14.094842 2.4444444 14.374657 2.7180481 14.374657 3.0555556C14.374657 3.3930628 14.094842 3.6666667 13.749673 3.6666667"/>
</svg>
