<?xml version="1.0" encoding="utf-8" ?>
<svg xmlns="http://www.w3.org/2000/svg" xmlns:xlink="http://www.w3.org/1999/xlink" width="18" height="17">
	<path fill="#001C38" transform="translate(0.0498047 0.000548363)" d="M8.0018167 10.8C6.4120378 10.8 5.1232677 9.5463972 5.1232677 8.000001C5.1232677 6.4536037 6.4120378 5.2000017 8.0018167 5.2000017C9.5915956 5.2000017 10.880365 6.4536037 10.880365 8.000001C10.880365 9.5463972 9.5915956 10.8 8.0018167 10.8M14.112565 8.776001C14.145463 8.5200005 14.170135 8.2640009 14.170135 8.0000019C14.170135 7.736001 14.145463 7.4720011 14.112565 7.2000008L15.847919 5.8960013C16.004183 5.7760015 16.045305 5.5600014 15.946611 5.3840013L14.301726 2.6160023C14.203033 2.4400022 13.980974 2.3680024 13.800036 2.4400022L11.752154 3.2400022C11.324485 2.9280021 10.880365 2.6560023 10.362226 2.4560022L10.057923 0.33600286C10.023427 0.14144406 9.8496704 -0.00052828179 9.6467018 1.4776356e-06L6.3569312 1.4776356e-06C6.1513209 1.4776356e-06 5.9786077 0.14400293 5.9457102 0.33600286L5.6414065 2.4560022C5.1232677 2.6560023 4.6791487 2.9280021 4.2514782 3.2400022L2.2035964 2.4400022C2.0226591 2.3680024 1.8005996 2.4400022 1.7019064 2.6160023L0.057021264 5.3840013C-0.049896274 5.5600014 -0.0005497174 5.7760015 0.15571438 5.8960013L1.8910682 7.2000008C1.8581705 7.4720011 1.8334973 7.736001 1.8334973 8.0000019C1.8334973 8.2640009 1.8581705 8.5200005 1.8910682 8.776001L0.15571438 10.104C-0.0005497174 10.224 -0.049896274 10.440001 0.057021264 10.616L1.7019064 13.383999C1.8005996 13.559999 2.0226591 13.624 2.2035964 13.559999L4.2514782 12.752C4.6791487 13.072 5.1232677 13.343999 5.6414065 13.544L5.9457102 15.663999C5.9786077 15.855999 6.1513209 16.000002 6.3569312 16.000002L9.6467018 16.000002C9.8523121 16.000002 10.025025 15.855999 10.057923 15.663999L10.362226 13.544C10.880365 13.335999 11.324485 13.072 11.752154 12.752L13.800036 13.559999C13.980974 13.624 14.203033 13.559999 14.301726 13.383999L15.946611 10.616C16.045305 10.440001 16.004183 10.224 15.847919 10.104L14.112565 8.776001L14.112565 8.776001Z"/>
</svg>
