<?xml version="1.0" encoding="utf-8" ?>
<svg xmlns="http://www.w3.org/2000/svg" xmlns:xlink="http://www.w3.org/1999/xlink" width="16" height="18">
	<path fill="#001C38" transform="translate(0 -4.76837e-06)" d="M0 5L1.6666666 5L1.6666666 9.166667C1.6666666 11.005 3.1616666 12.5 5 12.5L6.6666665 12.5L6.6666665 16.666666L8.333333 16.666666L8.333333 12.5L10 12.5C11.838333 12.5 13.333333 11.005 13.333333 9.166667L13.333333 5L15 5L15 3.3333333L0 3.3333333L0 5ZM3.3333333 0L5 0L5 2.5L3.3333333 2.5L3.3333333 0ZM10 0L11.666667 0L11.666667 2.5L10 2.5L10 0Z"/>
</svg>
