<?xml version="1.0" encoding="utf-8" ?>
<svg xmlns="http://www.w3.org/2000/svg" xmlns:xlink="http://www.w3.org/1999/xlink" width="16" height="16">
	<path fill="#2DB647" d="M8 0C3.581722 0 0 3.581722 0 8C0 12.418278 3.581722 16 8 16C12.418278 16 16 12.418278 16 8C15.995698 3.5835054 12.416494 0.0043024821 8 0M11.957073 6.5092683L7.7658539 10.700488C7.6235766 10.850306 7.4504905 10.967471 7.2585368 11.043902C6.8706341 11.2 6.4366827 11.2 6.0487804 11.043902C5.8586516 10.964064 5.6862259 10.847345 5.5414634 10.700488L3.4653659 8.6243906C3.2575502 8.4298983 3.1719508 8.1377773 3.2419305 7.8618836C3.3119102 7.58599 3.5263946 7.3699841 3.8017869 7.2980566C4.077179 7.2261286 4.3698978 7.3096619 4.5658536 7.5160975L6.649756 9.6000004L10.848781 5.4087806C10.99533 5.2610245 11.194819 5.1779137 11.402926 5.1779137C11.611034 5.1779137 11.810524 5.2610245 11.957073 5.4087806C12.244491 5.7102814 12.244491 6.1843524 11.957073 6.4858537L11.957073 6.5092683Z"/>
</svg>
