<?xml version="1.0" encoding="utf-8" ?>
<svg xmlns="http://www.w3.org/2000/svg" xmlns:xlink="http://www.w3.org/1999/xlink" width="16" height="17">
	<path fill="#F47216" d="M16 8C16 10.858125 14.475208 13.499141 12 14.928204C9.5247917 16.357265 6.4752088 16.357265 4 14.928204C1.5247914 13.499141 0 10.858125 0 8C0 3.581722 3.581722 0 8 0C12.418278 0 16 3.581722 16 8M9.1111107 11.777778C9.1111107 12.391427 8.6136494 12.888888 8 12.888888C7.3863502 12.888888 6.8888888 12.391427 6.8888888 11.777778C6.8888888 11.164128 7.3863502 10.666667 8 10.666667C8.6136494 10.666667 9.1111107 11.164128 9.1111107 11.777778M8.8888893 3.1111109L7.1111112 3.1111109L7.1111112 9.333333L8.8888893 9.333333L8.8888893 3.1111109Z" fill-rule="evenodd"/>
</svg>
