<?xml version="1.0" encoding="utf-8" ?>
<svg xmlns="http://www.w3.org/2000/svg" xmlns:xlink="http://www.w3.org/1999/xlink" width="22" height="20">
	<path fill="white" transform="translate(0.0424805 0)" d="M7.0096831 0.99053496C7.0096831 0.4434776 7.4570842 0 8.0089808 0L12.006173 0C12.55807 0 13.005471 0.4434776 13.005471 0.99053496L13.005471 2.9716048L16.003365 2.9716048C16.301945 2.9717219 16.584829 3.1041746 16.774565 3.3326969C16.964298 3.5612195 17.041004 3.8618677 16.983677 4.1523228L16.546984 6.3691397L15.220915 6.076932L10.224424 4.9764476C10.081603 4.9449773 9.9335518 4.9449773 9.7907295 4.9764476L4.7942395 6.0759416L3.4681709 6.3691397L3.0314777 4.1523228C2.9741504 3.8618677 3.0508552 3.5612195 3.2405899 3.3326969C3.4303246 3.1041746 3.7132094 2.9717219 4.0117893 2.9716048L7.0096831 2.9716048L7.0096831 0.99053496ZM0.92195964 8.9108524L0.79704738 8.9385872C0.49685892 9.0049114 0.24420314 9.2045584 0.11207332 9.4798498C-0.020056505 9.7551403 -0.016939927 10.075406 0.12052266 10.348119L2.1191187 14.310259C2.3112929 14.69138 2.727813 14.907985 3.1533921 14.848119L10.007577 13.877395L16.861763 14.848119C17.287342 14.907985 17.703861 14.69138 17.896036 14.310259L19.894632 10.348119C20.032095 10.075406 20.035212 9.7551403 19.903082 9.4798498C19.77095 9.2045584 19.518295 9.0049114 19.218107 8.9385872L19.093195 8.9108524C18.989853 8.9201803 18.885677 8.913497 18.784412 8.8910418L14.78722 8.0104561L10.007577 6.9575176L5.2279348 8.0104561L1.2307427 8.8920326C1.1294247 8.914156 1.0252489 8.9205055 0.92195964 8.9108524L0.92195964 8.9108524ZM7.2774949 16.447834C7.9664927 15.667382 8.9618235 15.21972 10.008077 15.21972C11.05433 15.21972 12.049661 15.667382 12.738659 16.447834L12.773634 16.487455C13.29204 17.075304 14.169819 17.191004 14.825192 16.757872C15.802413 16.112413 17.037498 15.984986 18.127872 16.417126L19.372 16.909422C19.875572 17.118021 20.117153 17.688522 19.914646 18.190895C19.712137 18.693266 19.140453 18.941662 18.63052 18.748846L17.386395 18.25556C16.906603 18.065535 16.363184 18.121843 15.933414 18.40612C14.44362 19.390442 12.448545 19.127726 11.269691 17.791988L11.234715 17.752367C10.925215 17.401394 10.477857 17.200041 10.007577 17.200041C9.5372982 17.200041 9.0899401 17.401394 8.7804394 17.752367L8.7454634 17.791988C7.5666099 19.127726 5.5715346 19.390442 4.0817399 18.40612C3.6519706 18.121843 3.1085517 18.065535 2.6287606 18.25556L1.3846346 18.748846C1.0517751 18.886728 0.66978145 18.836073 0.3851912 18.616312C0.10060095 18.396551 -0.042398907 18.041803 0.011048131 17.688158C0.064495169 17.334511 0.30609062 17.036873 0.64315552 16.909422L1.8872815 16.417126C2.9776554 15.984986 4.2127414 16.112413 5.1899614 16.757872C5.8453355 17.191004 6.723114 17.075304 7.2415204 16.487455L7.2764959 16.447834L7.2774949 16.447834Z" fill-rule="evenodd"/>
</svg>
