<?xml version="1.0" encoding="utf-8" ?>
<svg xmlns="http://www.w3.org/2000/svg" xmlns:xlink="http://www.w3.org/1999/xlink" width="22" height="18">
	<path fill="white" transform="translate(0.11377 0)" d="M19.581928 14.107633L12.183029 1.2822808C11.724189 0.48868132 10.877525 0 9.9614143 0C9.0453043 0 8.1986399 0.48868132 7.7398005 1.2822808L0.3409014 14.117363C-0.1136338 14.913264 -0.1136338 15.890425 0.3409014 16.686325C0.56892997 17.09437 0.90546697 17.431194 1.3131615 17.659418C1.70401 17.883228 2.1463883 18 2.5965447 18L17.394342 18C17.8445 18 18.286879 17.883228 18.677727 17.659418C19.085421 17.431194 19.421957 17.09437 19.649986 16.686325C20.116671 15.893699 20.116671 14.909991 19.649986 14.117363L19.581928 14.107633ZM12.892779 11.0132L9.2662487 14.633102C9.1322308 14.773851 8.9451618 14.851568 8.7509508 14.847182C8.5574064 14.848097 8.3716564 14.770927 8.2356529 14.633102C7.9513125 14.348164 7.9513125 13.886563 8.2356529 13.601624L10.61769 11.227281L7.5453486 11.227281C7.2497826 11.224999 6.9848285 11.04437 6.8744888 10.769927C6.7614655 10.499968 6.822958 10.188396 7.0300508 9.9817228L10.656581 6.3520899C10.943893 6.0841403 11.391619 6.0920467 11.669308 6.3699737C11.946998 6.6479001 11.954897 7.0960093 11.687177 7.3835673L9.3051395 9.767642L12.377481 9.767642C12.671475 9.7656498 12.937103 9.9428864 13.048341 10.215264C13.160306 10.488474 13.099152 10.802159 12.892779 11.0132"/>
</svg>
