<?xml version="1.0" encoding="utf-8" ?>
<svg xmlns="http://www.w3.org/2000/svg" xmlns:xlink="http://www.w3.org/1999/xlink" width="21" height="21">
	<path fill="white" transform="translate(0 0.000671387)" d="M10 20.000008C9.7339916 20.000008 9.4802923 19.950125 9.2388964 19.850374C8.9974995 19.750624 8.7773838 19.60931 8.5785475 19.426434L0.57356566 11.421453C0.39068967 11.221951 0.24937639 11.001503 0.14962582 10.760106C0.049875278 10.51871 0 10.265344 0 10.000007C0 9.7340059 0.049875278 9.4763165 0.14962582 9.2269402C0.24937639 8.9775639 0.39068967 8.7614374 0.57356566 8.5785618L8.5785475 0.57357985C8.7780485 0.37407878 8.998497 0.22844297 9.2398939 0.13667245C9.4812899 0.044901948 9.7346563 -0.00065080402 10 7.0233382e-06C10.265994 7.0233382e-06 10.523684 0.045899455 10.77306 0.13766997C11.022436 0.22944047 11.238563 0.37474379 11.421438 0.57357985L19.42642 8.5785618C19.625921 8.7614374 19.771557 8.9775639 19.863327 9.2269402C19.955097 9.4763165 20.00065 9.7340059 20 10.000007C20 10.266008 19.954433 10.519708 19.863327 10.761104C19.772223 11.002501 19.626587 11.222616 19.42642 11.421453L11.421438 19.426434C11.238563 19.60931 11.022436 19.750624 10.77306 19.850374C10.523684 19.950125 10.265994 20.000008 10 20.000008L10 20.000008ZM9.9999933 10.997516C10.282619 10.997516 10.519693 10.902084 10.711214 10.711228C10.902736 10.520372 10.998163 10.283298 10.997502 10.000007L10.997502 6.009985C10.997502 5.7273583 10.901738 5.4902844 10.710217 5.2987638C10.518696 5.1072426 10.281955 5.0118146 9.9999933 5.012476C9.7173662 5.012476 9.4802923 5.1082401 9.2887716 5.2997613C9.09725 5.491282 9.0018225 5.7280235 9.0024843 6.009985L9.0024843 10.000007C9.0024843 10.282634 9.0982475 10.519708 9.2897692 10.711228C9.4812899 10.90275 9.7180309 10.998178 9.9999933 10.997516ZM9.9999933 13.990032C10.282619 13.990032 10.519693 13.894269 10.711214 13.702747C10.902736 13.511227 10.998163 13.274486 10.997502 12.992524C10.997502 12.709897 10.901738 12.472823 10.710217 12.281302C10.518696 12.089781 10.281955 11.994353 9.9999933 11.995015C9.7173662 11.995015 9.4802923 12.090778 9.2887716 12.2823C9.09725 12.473821 9.0018225 12.710562 9.0024843 12.992524C9.0024843 13.27515 9.0982475 13.512224 9.2897692 13.703745C9.4812899 13.895267 9.7180309 13.990694 9.9999933 13.990032Z"/>
</svg>
