<?xml version="1.0" encoding="utf-8" ?>
<svg xmlns="http://www.w3.org/2000/svg" xmlns:xlink="http://www.w3.org/1999/xlink" width="16" height="16">
	<path fill="white" d="M8 0C8.734375 0 9.442708 0.09375 10.125 0.28125C10.807292 0.46875 11.445312 0.73697919 12.039062 1.0859375C12.632812 1.4348959 13.171875 1.8515625 13.65625 2.3359375C14.140625 2.8203125 14.557292 3.3619792 14.90625 3.9609375C15.255208 4.559896 15.523438 5.1979165 15.710938 5.875C15.898438 6.5520835 15.994792 7.2604165 16 8C16 8.734375 15.90625 9.442708 15.71875 10.125C15.53125 10.807292 15.263021 11.445312 14.914062 12.039062C14.565104 12.632812 14.148438 13.171875 13.664062 13.65625C13.179688 14.140625 12.638021 14.557292 12.039062 14.90625C11.440104 15.255208 10.802083 15.523438 10.125 15.710938C9.447917 15.898438 8.739583 15.994792 8 16C7.265625 16 6.5572915 15.90625 5.875 15.71875C5.1927085 15.53125 4.5546875 15.263021 3.9609375 14.914062C3.3671875 14.565104 2.828125 14.148438 2.34375 13.664062C1.859375 13.179688 1.4427084 12.638021 1.09375 12.039062C0.74479169 11.440104 0.4765625 10.804688 0.2890625 10.132812C0.1015625 9.4609375 0.0052083335 8.75 0 8C0 7.265625 0.09375 6.5572915 0.28125 5.875C0.46875 5.1927085 0.73697919 4.5546875 1.0859375 3.9609375C1.4348959 3.3671875 1.8515625 2.828125 2.3359375 2.34375C2.8203125 1.859375 3.3619792 1.4427084 3.9609375 1.09375C4.559896 0.74479169 5.1953125 0.4765625 5.8671875 0.2890625C6.5390625 0.1015625 7.25 0.0052083335 8 0ZM15 8C15 7.625 14.971354 7.252604 14.914062 6.8828125C14.856771 6.513021 14.765625 6.1484375 14.640625 5.7890625C14.322917 5.893229 14.007812 5.997396 13.695312 6.1015625C13.382812 6.205729 13.065104 6.309896 12.742188 6.4140625C12.914062 6.924479 13 7.453125 13 8C13 8.552083 12.914062 9.0807295 12.742188 9.5859375L14.640625 10.210938C14.760417 9.8515625 14.848958 9.4869795 14.90625 9.1171875C14.963542 8.7473955 14.994792 8.375 15 8ZM1 8C1 8.375 1.0286459 8.7473955 1.0859375 9.1171875C1.1432291 9.4869795 1.234375 9.8515625 1.359375 10.210938C1.6770834 10.106771 1.9921875 10.002604 2.3046875 9.8984375C2.6171875 9.7942705 2.9348958 9.6901045 3.2578125 9.5859375C3.0859375 9.0807295 3 8.552083 3 8C3 7.453125 3.0859375 6.924479 3.2578125 6.4140625L1.359375 5.7890625C1.2395834 6.1484375 1.1510416 6.513021 1.09375 6.8828125C1.0364584 7.252604 1.0052084 7.625 1 8ZM4 8C4 8.552083 4.1041665 9.0703125 4.3125 9.5546875C4.5208335 10.039062 4.8072915 10.460938 5.171875 10.820312C5.5364585 11.179688 5.9609375 11.466146 6.4453125 11.679688C6.9296875 11.893229 7.4479165 12 8 12C8.552083 12 9.0703125 11.895833 9.5546875 11.6875C10.039062 11.479167 10.460938 11.192708 10.820312 10.828125C11.179688 10.463542 11.466146 10.039062 11.679688 9.5546875C11.893229 9.0703125 12 8.552083 12 8C12 7.4479165 11.895833 6.9296875 11.6875 6.4453125C11.479167 5.9609375 11.192708 5.5390625 10.828125 5.1796875C10.463542 4.8203125 10.039062 4.533854 9.5546875 4.3203125C9.0703125 4.106771 8.552083 4 8 4C7.4479165 4 6.9296875 4.1041665 6.4453125 4.3125C5.9609375 4.5208335 5.5390625 4.8072915 5.1796875 5.171875C4.8203125 5.5364585 4.533854 5.9609375 4.3203125 6.4453125C4.106771 6.9296875 4 7.4479165 4 8ZM10.210938 1.359375C9.8515625 1.2395834 9.4869795 1.1510416 9.1171875 1.09375C8.7473955 1.0364584 8.375 1.0052084 8 1C7.625 1 7.252604 1.0286459 6.8828125 1.0859375C6.513021 1.1432291 6.1484375 1.234375 5.7890625 1.359375C5.893229 1.6770834 5.997396 1.9921875 6.1015625 2.3046875C6.205729 2.6171875 6.309896 2.9348958 6.4140625 3.2578125C6.919271 3.0859375 7.4479165 3 8 3C8.546875 3 9.0755205 3.0859375 9.5859375 3.2578125L10.210938 1.359375ZM5.7890625 14.640625C6.1484375 14.760417 6.513021 14.848958 6.8828125 14.90625C7.252604 14.963542 7.625 14.994792 8 15C8.375 15 8.7473955 14.971354 9.1171875 14.914062C9.4869795 14.856771 9.8515625 14.765625 10.210938 14.640625C10.106771 14.322917 10.002604 14.007812 9.8984375 13.695312C9.7942705 13.382812 9.6901045 13.065104 9.5859375 12.742188C9.0755205 12.914062 8.546875 13 8 13C7.4479165 13 6.919271 12.914062 6.4140625 12.742188L5.7890625 14.640625Z"/>
</svg>
