<?xml version="1.0" encoding="utf-8" ?>
<svg xmlns="http://www.w3.org/2000/svg" xmlns:xlink="http://www.w3.org/1999/xlink" width="18" height="16">
	<path fill="white" transform="translate(0.116211 0)" d="M0.10936335 10.6168L1.7436199 13.3848C1.9695501 13.767124 2.4692147 13.897838 2.8598173 13.6768L4.0005283 13.032C4.4744625 13.3976 4.9982419 13.6976 5.5489864 13.9216L5.5489864 15.2C5.5489864 15.641828 5.9148273 16 6.3661146 16L9.6346273 16C10.085916 16 10.451756 15.641828 10.451756 15.2L10.451756 13.9216C11.00681 13.695352 11.527761 13.396062 12.000215 13.032L13.140925 13.6768C13.530696 13.8968 14.032413 13.7648 14.257123 13.3848L15.891379 10.6168C16.115227 10.234138 15.982098 9.7463465 15.593127 9.5240002L14.472027 8.8895998C14.559625 8.2995949 14.559074 7.7002501 14.470393 7.1104002L15.591493 6.4759998C15.980446 6.256 16.115273 5.7639999 15.889745 5.3832002L14.255488 2.6152C14.029558 2.2328758 13.529894 2.1021621 13.139291 2.3232L11.99858 2.9679999C11.526728 2.6035025 11.005982 2.3041728 10.450939 2.0783999L10.450939 0.80000001C10.450939 0.35817221 10.085098 0 9.633811 0L6.3652973 0C5.91401 0 5.5481691 0.35817221 5.5481691 0.80000001L5.5481691 2.0783999C4.9931149 2.3046479 4.4721637 2.6039381 3.999711 2.9679999L2.8598173 2.3232C2.6722901 2.216835 2.4492576 2.1878448 2.2398789 2.2426188C2.0305002 2.2973928 1.8519633 2.4314346 1.7436199 2.6152L0.10936335 5.3832002C-0.11448499 5.765862 0.018645173 6.253653 0.40761515 6.4759998L1.5287151 7.1104002C1.4405757 7.7003279 1.4405757 8.2996721 1.5287151 8.8895998L0.40761515 9.5240002C0.018662104 9.7440004 -0.11616407 10.236 0.10936335 10.6168L0.10936335 10.6168ZM7.9995542 4.8000002C9.8021393 4.8000002 11.268067 6.2351999 11.268067 8C11.268067 9.7648001 9.8021393 11.2 7.9995542 11.2C6.196969 11.2 4.731041 9.7648001 4.731041 8C4.731041 6.2351999 6.196969 4.8000002 7.9995542 4.8000002Z"/>
</svg>
