<?xml version="1.0" encoding="utf-8" ?>
<svg xmlns="http://www.w3.org/2000/svg" xmlns:xlink="http://www.w3.org/1999/xlink" width="16" height="16">
	<path fill="white" d="M11 10C13.7625 10 16 7.7624998 16 5C16 4.5218749 15.93125 4.0593748 15.80625 3.6187501C15.709375 3.28125 15.29375 3.20625 15.046875 3.453125L12.646875 5.8531251C12.553125 5.9468751 12.425 6 12.29375 6L10.5 6C10.225 6 10 5.7750001 10 5.5L10 3.70625C10 3.575 10.053125 3.4468751 10.146875 3.3531251L12.546875 0.953125C12.79375 0.70625001 12.715625 0.29062501 12.38125 0.19374999C11.940625 0.068750001 11.478125 0 11 0C8.2375002 0 6 2.2375 6 5C6 5.5968752 6.1062498 6.171875 6.296875 6.703125L0.62187499 12.378125C0.22499999 12.775 0 13.315625 0 13.878125C0 15.05 0.94999999 16 2.121875 16C2.684375 16 3.2249999 15.775 3.621875 15.378125L9.296875 9.703125C9.828125 9.8968754 10.403125 10 11 10ZM2.5 12.75C2.9142137 12.75 3.25 13.085787 3.25 13.5C3.25 13.914213 2.9142137 14.25 2.5 14.25C2.0857863 14.25 1.75 13.914213 1.75 13.5C1.75 13.085787 2.0857863 12.75 2.5 12.75Z"/>
</svg>
